<mxfile host="app.diagrams.net" modified="2023-07-17T06:43:30.228Z" agent="Mozilla/5.0 (Windows NT 10.0; Win64; x64) AppleWebKit/537.36 (KHTML, like Gecko) Chrome/114.0.0.0 Safari/537.36" etag="UPtRdvHpHrBsnRj7qMDQ" version="21.6.2" type="device">
  <diagram name="Page-1" id="KFSLEv4HnUT1pbFmEMQF">
    <mxGraphModel dx="794" dy="470" grid="1" gridSize="10" guides="1" tooltips="1" connect="1" arrows="1" fold="1" page="1" pageScale="1" pageWidth="690" pageHeight="980" math="0" shadow="0">
      <root>
        <mxCell id="0" />
        <mxCell id="1" parent="0" />
        <mxCell id="e9I1-9ilMqFJsEArppFG-2" value="Odoo Meta Whatsapp API" style="swimlane;fontStyle=1;align=center;horizontal=1;startSize=30;collapsible=0;html=1;whiteSpace=wrap;" vertex="1" parent="1">
          <mxGeometry x="80" y="40" width="520" height="880" as="geometry" />
        </mxCell>
        <mxCell id="e9I1-9ilMqFJsEArppFG-10" value="&lt;font style=&quot;font-size: 9px;&quot;&gt;Create Facebook&lt;br&gt;&amp;nbsp;Developer Account&lt;/font&gt;" style="ellipse;whiteSpace=wrap;html=1;" vertex="1" parent="e9I1-9ilMqFJsEArppFG-2">
          <mxGeometry x="160" y="50" width="120" height="40" as="geometry" />
        </mxCell>
        <mxCell id="e9I1-9ilMqFJsEArppFG-12" value="&lt;font style=&quot;font-size: 9px;&quot;&gt;Use Personal /company Facebbok account&lt;/font&gt;" style="ellipse;whiteSpace=wrap;html=1;" vertex="1" parent="e9I1-9ilMqFJsEArppFG-2">
          <mxGeometry x="390" y="40" width="130" height="40" as="geometry" />
        </mxCell>
        <mxCell id="e9I1-9ilMqFJsEArppFG-13" value="&amp;lt;&amp;lt;include&amp;gt;&amp;gt;" style="edgeStyle=none;html=1;endArrow=open;verticalAlign=bottom;dashed=1;labelBackgroundColor=none;rounded=0;exitX=1;exitY=0.5;exitDx=0;exitDy=0;entryX=0.045;entryY=0.656;entryDx=0;entryDy=0;entryPerimeter=0;" edge="1" parent="e9I1-9ilMqFJsEArppFG-2" source="e9I1-9ilMqFJsEArppFG-10" target="e9I1-9ilMqFJsEArppFG-12">
          <mxGeometry width="160" relative="1" as="geometry">
            <mxPoint x="270" y="69.5" as="sourcePoint" />
            <mxPoint x="305" y="70" as="targetPoint" />
          </mxGeometry>
        </mxCell>
        <mxCell id="e9I1-9ilMqFJsEArppFG-14" value="&lt;font style=&quot;font-size: 9px;&quot;&gt;Create app and register&lt;/font&gt;" style="ellipse;whiteSpace=wrap;html=1;" vertex="1" parent="e9I1-9ilMqFJsEArppFG-2">
          <mxGeometry x="170" y="100" width="95" height="40" as="geometry" />
        </mxCell>
        <mxCell id="e9I1-9ilMqFJsEArppFG-19" value="&lt;font style=&quot;font-size: 9px;&quot;&gt;APP&lt;/font&gt;" style="ellipse;whiteSpace=wrap;html=1;" vertex="1" parent="e9I1-9ilMqFJsEArppFG-2">
          <mxGeometry x="180" y="150" width="80" height="30" as="geometry" />
        </mxCell>
        <mxCell id="e9I1-9ilMqFJsEArppFG-20" value="&lt;font style=&quot;font-size: 9px;&quot;&gt;Add product&lt;/font&gt;" style="ellipse;whiteSpace=wrap;html=1;" vertex="1" parent="e9I1-9ilMqFJsEArppFG-2">
          <mxGeometry x="140" y="200" width="70" height="30" as="geometry" />
        </mxCell>
        <mxCell id="e9I1-9ilMqFJsEArppFG-22" value="&lt;font style=&quot;font-size: 9px;&quot;&gt;&amp;lt;&amp;lt;include&amp;gt;&amp;gt;&lt;/font&gt;" style="edgeStyle=none;html=1;endArrow=open;verticalAlign=bottom;dashed=1;labelBackgroundColor=none;rounded=0;entryX=0.619;entryY=0.067;entryDx=0;entryDy=0;exitX=0.05;exitY=0.778;exitDx=0;exitDy=0;exitPerimeter=0;entryPerimeter=0;" edge="1" parent="e9I1-9ilMqFJsEArppFG-2" source="e9I1-9ilMqFJsEArppFG-19" target="e9I1-9ilMqFJsEArppFG-20">
          <mxGeometry x="0.04" y="1" width="160" relative="1" as="geometry">
            <mxPoint x="140" y="250" as="sourcePoint" />
            <mxPoint x="300" y="250" as="targetPoint" />
            <mxPoint as="offset" />
          </mxGeometry>
        </mxCell>
        <mxCell id="e9I1-9ilMqFJsEArppFG-23" value="&lt;font style=&quot;font-size: 9px;&quot;&gt;Whatsapp&lt;/font&gt;" style="ellipse;whiteSpace=wrap;html=1;" vertex="1" parent="e9I1-9ilMqFJsEArppFG-2">
          <mxGeometry x="270" y="190" width="60" height="30" as="geometry" />
        </mxCell>
        <mxCell id="e9I1-9ilMqFJsEArppFG-24" value="&lt;font style=&quot;font-size: 9px;&quot;&gt;&amp;lt;&amp;lt;include&amp;gt;&amp;gt;&lt;/font&gt;" style="edgeStyle=none;html=1;endArrow=open;verticalAlign=bottom;dashed=1;labelBackgroundColor=none;rounded=0;exitX=0.962;exitY=0.756;exitDx=0;exitDy=0;exitPerimeter=0;entryX=0;entryY=0.5;entryDx=0;entryDy=0;" edge="1" parent="e9I1-9ilMqFJsEArppFG-2" source="e9I1-9ilMqFJsEArppFG-20" target="e9I1-9ilMqFJsEArppFG-23">
          <mxGeometry x="-0.1172" width="160" relative="1" as="geometry">
            <mxPoint x="370" y="230" as="sourcePoint" />
            <mxPoint x="380" y="240" as="targetPoint" />
            <mxPoint as="offset" />
          </mxGeometry>
        </mxCell>
        <mxCell id="e9I1-9ilMqFJsEArppFG-27" value="&lt;font style=&quot;font-size: 9px;&quot;&gt;Set up&lt;/font&gt;" style="ellipse;whiteSpace=wrap;html=1;" vertex="1" parent="e9I1-9ilMqFJsEArppFG-2">
          <mxGeometry x="380" y="230" width="40" height="20" as="geometry" />
        </mxCell>
        <mxCell id="e9I1-9ilMqFJsEArppFG-28" value="&lt;font style=&quot;font-size: 8px;&quot;&gt;&amp;lt;&amp;lt;include&amp;gt;&amp;gt;&lt;/font&gt;" style="edgeStyle=none;html=1;endArrow=open;verticalAlign=bottom;dashed=1;labelBackgroundColor=none;rounded=0;exitX=0.5;exitY=1;exitDx=0;exitDy=0;" edge="1" parent="e9I1-9ilMqFJsEArppFG-2" source="e9I1-9ilMqFJsEArppFG-23" target="e9I1-9ilMqFJsEArppFG-27">
          <mxGeometry x="0.1824" y="10" width="160" relative="1" as="geometry">
            <mxPoint x="180" y="280" as="sourcePoint" />
            <mxPoint x="340" y="280" as="targetPoint" />
            <mxPoint as="offset" />
          </mxGeometry>
        </mxCell>
        <mxCell id="e9I1-9ilMqFJsEArppFG-30" value="&lt;font style=&quot;font-size: 9px;&quot;&gt;Facebook Credential&lt;/font&gt;" style="ellipse;whiteSpace=wrap;html=1;" vertex="1" parent="e9I1-9ilMqFJsEArppFG-2">
          <mxGeometry x="210" y="250" width="80" height="40" as="geometry" />
        </mxCell>
        <mxCell id="e9I1-9ilMqFJsEArppFG-40" value="&lt;font style=&quot;font-size: 9px;&quot;&gt;Temporary Access Token&lt;/font&gt;" style="ellipse;whiteSpace=wrap;html=1;" vertex="1" parent="e9I1-9ilMqFJsEArppFG-2">
          <mxGeometry x="180" y="320" width="70" height="40" as="geometry" />
        </mxCell>
        <mxCell id="e9I1-9ilMqFJsEArppFG-41" value="&lt;font style=&quot;font-size: 9px;&quot;&gt;Phone no. ID&lt;/font&gt;" style="ellipse;whiteSpace=wrap;html=1;" vertex="1" parent="e9I1-9ilMqFJsEArppFG-2">
          <mxGeometry x="280" y="320" width="40" height="30" as="geometry" />
        </mxCell>
        <mxCell id="e9I1-9ilMqFJsEArppFG-46" value="&lt;font style=&quot;font-size: 9px;&quot;&gt;Whatsapp Business Account ID&lt;/font&gt;" style="ellipse;whiteSpace=wrap;html=1;" vertex="1" parent="e9I1-9ilMqFJsEArppFG-2">
          <mxGeometry x="320" y="290" width="90" height="50" as="geometry" />
        </mxCell>
        <mxCell id="e9I1-9ilMqFJsEArppFG-47" value="" style="edgeStyle=none;html=1;endArrow=block;endFill=0;endSize=12;verticalAlign=bottom;rounded=0;entryX=0.258;entryY=0.933;entryDx=0;entryDy=0;entryPerimeter=0;exitX=0.61;exitY=0.033;exitDx=0;exitDy=0;exitPerimeter=0;" edge="1" parent="e9I1-9ilMqFJsEArppFG-2" source="e9I1-9ilMqFJsEArppFG-40" target="e9I1-9ilMqFJsEArppFG-30">
          <mxGeometry width="160" relative="1" as="geometry">
            <mxPoint x="180" y="440" as="sourcePoint" />
            <mxPoint x="340" y="440" as="targetPoint" />
          </mxGeometry>
        </mxCell>
        <mxCell id="e9I1-9ilMqFJsEArppFG-48" value="" style="edgeStyle=none;html=1;endArrow=block;endFill=0;endSize=12;verticalAlign=bottom;rounded=0;entryX=0.5;entryY=1;entryDx=0;entryDy=0;exitX=0;exitY=0;exitDx=0;exitDy=0;" edge="1" parent="e9I1-9ilMqFJsEArppFG-2" source="e9I1-9ilMqFJsEArppFG-41" target="e9I1-9ilMqFJsEArppFG-30">
          <mxGeometry width="160" relative="1" as="geometry">
            <mxPoint x="180" y="440" as="sourcePoint" />
            <mxPoint x="340" y="440" as="targetPoint" />
          </mxGeometry>
        </mxCell>
        <mxCell id="e9I1-9ilMqFJsEArppFG-49" value="" style="edgeStyle=none;html=1;endArrow=block;endFill=0;endSize=12;verticalAlign=bottom;rounded=0;entryX=1;entryY=1;entryDx=0;entryDy=0;exitX=0;exitY=0;exitDx=0;exitDy=0;" edge="1" parent="e9I1-9ilMqFJsEArppFG-2" source="e9I1-9ilMqFJsEArppFG-46" target="e9I1-9ilMqFJsEArppFG-30">
          <mxGeometry width="160" relative="1" as="geometry">
            <mxPoint x="180" y="440" as="sourcePoint" />
            <mxPoint x="340" y="440" as="targetPoint" />
          </mxGeometry>
        </mxCell>
        <mxCell id="e9I1-9ilMqFJsEArppFG-51" value="&lt;font style=&quot;font-size: 9px;&quot;&gt;Permanat Access Token&lt;/font&gt;" style="ellipse;whiteSpace=wrap;html=1;" vertex="1" parent="e9I1-9ilMqFJsEArppFG-2">
          <mxGeometry x="220" y="390" width="90" height="40" as="geometry" />
        </mxCell>
        <mxCell id="e9I1-9ilMqFJsEArppFG-5" value="Admin" style="shape=umlActor;html=1;verticalLabelPosition=bottom;verticalAlign=top;align=center;" vertex="1" parent="1">
          <mxGeometry x="20" y="290" width="30" height="60" as="geometry" />
        </mxCell>
        <mxCell id="e9I1-9ilMqFJsEArppFG-8" value="Facebook &lt;br&gt;Developer &lt;br&gt;Account" style="shape=umlActor;html=1;verticalLabelPosition=bottom;verticalAlign=top;align=center;" vertex="1" parent="1">
          <mxGeometry x="640" y="305" width="30" height="60" as="geometry" />
        </mxCell>
        <mxCell id="e9I1-9ilMqFJsEArppFG-11" value="" style="edgeStyle=none;html=1;endArrow=none;verticalAlign=bottom;rounded=0;entryX=0;entryY=0.5;entryDx=0;entryDy=0;exitX=0.75;exitY=0.1;exitDx=0;exitDy=0;exitPerimeter=0;" edge="1" parent="1" source="e9I1-9ilMqFJsEArppFG-5" target="e9I1-9ilMqFJsEArppFG-10">
          <mxGeometry width="160" relative="1" as="geometry">
            <mxPoint x="50" y="110" as="sourcePoint" />
            <mxPoint x="210" y="110" as="targetPoint" />
          </mxGeometry>
        </mxCell>
        <mxCell id="e9I1-9ilMqFJsEArppFG-16" value="" style="edgeStyle=none;html=1;endArrow=none;verticalAlign=bottom;rounded=0;exitX=1;exitY=0.5;exitDx=0;exitDy=0;entryX=0;entryY=0.3333333333333333;entryDx=0;entryDy=0;entryPerimeter=0;" edge="1" parent="1" source="e9I1-9ilMqFJsEArppFG-10" target="e9I1-9ilMqFJsEArppFG-8">
          <mxGeometry width="160" relative="1" as="geometry">
            <mxPoint x="260" y="290" as="sourcePoint" />
            <mxPoint x="420" y="290" as="targetPoint" />
          </mxGeometry>
        </mxCell>
        <mxCell id="e9I1-9ilMqFJsEArppFG-17" value="" style="edgeStyle=none;html=1;endArrow=none;verticalAlign=bottom;rounded=0;exitX=1;exitY=0.3333333333333333;exitDx=0;exitDy=0;exitPerimeter=0;entryX=0;entryY=0.5;entryDx=0;entryDy=0;" edge="1" parent="1" source="e9I1-9ilMqFJsEArppFG-5" target="e9I1-9ilMqFJsEArppFG-14">
          <mxGeometry width="160" relative="1" as="geometry">
            <mxPoint x="260" y="390" as="sourcePoint" />
            <mxPoint x="420" y="390" as="targetPoint" />
          </mxGeometry>
        </mxCell>
        <mxCell id="e9I1-9ilMqFJsEArppFG-18" value="" style="edgeStyle=none;html=1;endArrow=none;verticalAlign=bottom;rounded=0;exitX=1;exitY=0.5;exitDx=0;exitDy=0;entryX=0;entryY=0.3333333333333333;entryDx=0;entryDy=0;entryPerimeter=0;" edge="1" parent="1" source="e9I1-9ilMqFJsEArppFG-14" target="e9I1-9ilMqFJsEArppFG-8">
          <mxGeometry width="160" relative="1" as="geometry">
            <mxPoint x="260" y="390" as="sourcePoint" />
            <mxPoint x="420" y="390" as="targetPoint" />
          </mxGeometry>
        </mxCell>
        <mxCell id="e9I1-9ilMqFJsEArppFG-25" value="" style="edgeStyle=none;html=1;endArrow=none;verticalAlign=bottom;rounded=0;entryX=0;entryY=0.5;entryDx=0;entryDy=0;" edge="1" parent="1" target="e9I1-9ilMqFJsEArppFG-19">
          <mxGeometry width="160" relative="1" as="geometry">
            <mxPoint x="50" y="310" as="sourcePoint" />
            <mxPoint x="420" y="310" as="targetPoint" />
          </mxGeometry>
        </mxCell>
        <mxCell id="e9I1-9ilMqFJsEArppFG-26" value="" style="edgeStyle=none;html=1;endArrow=none;verticalAlign=bottom;rounded=0;entryX=0;entryY=0.3333333333333333;entryDx=0;entryDy=0;entryPerimeter=0;exitX=1;exitY=0;exitDx=0;exitDy=0;" edge="1" parent="1" source="e9I1-9ilMqFJsEArppFG-19" target="e9I1-9ilMqFJsEArppFG-8">
          <mxGeometry width="160" relative="1" as="geometry">
            <mxPoint x="260" y="310" as="sourcePoint" />
            <mxPoint x="420" y="310" as="targetPoint" />
          </mxGeometry>
        </mxCell>
        <mxCell id="e9I1-9ilMqFJsEArppFG-31" value="" style="edgeStyle=none;html=1;endArrow=none;verticalAlign=bottom;rounded=0;exitX=1;exitY=0.3333333333333333;exitDx=0;exitDy=0;exitPerimeter=0;entryX=0;entryY=0;entryDx=0;entryDy=0;" edge="1" parent="1" source="e9I1-9ilMqFJsEArppFG-5" target="e9I1-9ilMqFJsEArppFG-30">
          <mxGeometry width="160" relative="1" as="geometry">
            <mxPoint x="260" y="440" as="sourcePoint" />
            <mxPoint x="420" y="440" as="targetPoint" />
          </mxGeometry>
        </mxCell>
        <mxCell id="e9I1-9ilMqFJsEArppFG-32" value="" style="edgeStyle=none;html=1;endArrow=none;verticalAlign=bottom;rounded=0;exitX=1;exitY=0.5;exitDx=0;exitDy=0;" edge="1" parent="1" source="e9I1-9ilMqFJsEArppFG-30">
          <mxGeometry width="160" relative="1" as="geometry">
            <mxPoint x="260" y="340" as="sourcePoint" />
            <mxPoint x="640" y="330" as="targetPoint" />
          </mxGeometry>
        </mxCell>
        <mxCell id="e9I1-9ilMqFJsEArppFG-33" value="Odoo&lt;br&gt;Graph &lt;br&gt;API" style="shape=umlActor;html=1;verticalLabelPosition=bottom;verticalAlign=top;align=center;" vertex="1" parent="1">
          <mxGeometry x="20" y="480" width="30" height="60" as="geometry" />
        </mxCell>
        <mxCell id="e9I1-9ilMqFJsEArppFG-50" value="" style="edgeStyle=none;html=1;endArrow=none;verticalAlign=bottom;rounded=0;exitX=0.5;exitY=0.5;exitDx=0;exitDy=0;exitPerimeter=0;entryX=0;entryY=0.5;entryDx=0;entryDy=0;" edge="1" parent="1" source="e9I1-9ilMqFJsEArppFG-33" target="e9I1-9ilMqFJsEArppFG-30">
          <mxGeometry width="160" relative="1" as="geometry">
            <mxPoint x="260" y="480" as="sourcePoint" />
            <mxPoint x="420" y="480" as="targetPoint" />
          </mxGeometry>
        </mxCell>
        <mxCell id="e9I1-9ilMqFJsEArppFG-52" value="" style="edgeStyle=none;html=1;endArrow=none;verticalAlign=bottom;rounded=0;exitX=0.5;exitY=0.5;exitDx=0;exitDy=0;exitPerimeter=0;entryX=0;entryY=0.5;entryDx=0;entryDy=0;" edge="1" parent="1" source="e9I1-9ilMqFJsEArppFG-33" target="e9I1-9ilMqFJsEArppFG-51">
          <mxGeometry width="160" relative="1" as="geometry">
            <mxPoint x="260" y="490" as="sourcePoint" />
            <mxPoint x="420" y="490" as="targetPoint" />
          </mxGeometry>
        </mxCell>
        <mxCell id="e9I1-9ilMqFJsEArppFG-53" value="" style="edgeStyle=none;html=1;endArrow=none;verticalAlign=bottom;rounded=0;exitX=1;exitY=0.5;exitDx=0;exitDy=0;" edge="1" parent="1" source="e9I1-9ilMqFJsEArppFG-51">
          <mxGeometry width="160" relative="1" as="geometry">
            <mxPoint x="260" y="490" as="sourcePoint" />
            <mxPoint x="640" y="330" as="targetPoint" />
          </mxGeometry>
        </mxCell>
      </root>
    </mxGraphModel>
  </diagram>
</mxfile>
